# xmcd
#
# Track frame offsets:
#	150
#	15485
#	37590
#	52585
#	70852
#	87567
#	109097
#	126165
#	148965
#	167302
#	183470
#	202217
#
# Disc length: 2967 seconds
#
# Revision: 1
# Processed by: cddbd v1.5.2PL0 Copyright (c) Steve Scherf et al.
# Submitted via: audiograbber 1.83.01
#
DISCID=9d0b950c
DTITLE=Chris Walker - I know it's love
DYEAR=2004
DGENRE=R&B
TTITLE0=Drifting along
TTITLE1=Even now
TTITLE2=It's the last. Last time
TTITLE3=This is goodbye
TTITLE4=Beyond the limits of love
TTITLE5=Can we make believe
TTITLE6=Did you ever want to know
TTITLE7=Perfect woman
TTITLE8=Have you ever heard
TTITLE9=I'll never know
TTITLE10=I found love
TTITLE11=Merry-go-round
EXTD=
EXTT0=
EXTT1=
EXTT2=
EXTT3=
EXTT4=
EXTT5=
EXTT6=
EXTT7=
EXTT8=
EXTT9=
EXTT10=
EXTT11=
PLAYORDER=
